<svg width="24" height="22" viewBox="0 0 24 22" fill="none" xmlns="http://www.w3.org/2000/svg">
<path d="M11.9995 21.4757C11.1379 21.475 10.3118 21.1321 9.70285 20.5224L2.54202 13.3724C1.39506 12.2533 0.594213 10.828 0.235012 9.2663C-0.124189 7.70464 -0.0265833 6.07261 0.516187 4.56489C0.849719 3.53362 1.46269 2.61504 2.28697 1.91124C3.11125 1.20745 4.11455 0.746012 5.18535 0.578226C6.51515 0.479113 7.84735 0.735977 9.04496 1.32241C10.2426 1.90884 11.2624 2.80367 11.9995 3.91489C12.7257 2.798 13.7404 1.89824 14.9361 1.31086C16.1319 0.72348 17.4642 0.470336 18.792 0.578226C19.8667 0.742291 20.8746 1.20204 21.703 1.90608C22.5314 2.61012 23.1477 3.5307 23.4829 4.56489C24.0256 6.07261 24.1232 7.70464 23.764 9.2663C23.4048 10.828 22.604 12.2533 21.457 13.3724L14.2962 20.5224C13.6873 21.1321 12.8612 21.475 11.9995 21.4757ZM5.97619 2.69073C5.81026 2.67961 5.64378 2.67961 5.47785 2.69073C4.79044 2.81311 4.15105 3.12561 3.63216 3.59281C3.11327 4.06 2.73562 4.66321 2.54202 5.33406C2.14402 6.45043 2.07748 7.6581 2.35044 8.81144C2.62339 9.96477 3.22418 11.0145 4.08035 11.8341L11.2304 18.9949C11.3311 19.0964 11.4509 19.177 11.5829 19.232C11.7149 19.287 11.8565 19.3153 11.9995 19.3153C12.1425 19.3153 12.2841 19.287 12.4161 19.232C12.5482 19.177 12.668 19.0964 12.7687 18.9949L19.9187 11.8341C20.7749 11.0145 21.3757 9.96477 21.6486 8.81144C21.9216 7.6581 21.855 6.45043 21.457 5.33406C21.2566 4.66636 20.8734 4.06802 20.3508 3.60665C19.8282 3.14528 19.1869 2.83928 18.4995 2.72323C17.5514 2.67389 16.6073 2.87766 15.7639 3.31361C14.9206 3.74957 14.2084 4.40203 13.7004 5.20406C13.4982 5.46906 13.2375 5.68383 12.9388 5.83166C12.64 5.9795 12.3112 6.05641 11.9779 6.05641C11.6445 6.05641 11.3157 5.9795 11.0169 5.83166C10.7182 5.68383 10.4576 5.46906 10.2554 5.20406C9.78437 4.48336 9.15298 3.88144 8.4106 3.44541C7.66823 3.00939 6.83502 2.75109 5.97619 2.69073Z" fill="currentColor"/>
</svg>
