<svg width="26" height="26" viewBox="0 0 26 26" fill="none" xmlns="http://www.w3.org/2000/svg">
<g clip-path="url(#clip0_144_84)">
<path fill-rule="evenodd" clip-rule="evenodd" d="M13.0009 13C10.1188 13 7.77616 10.6678 7.77616 7.79998C7.77616 4.93218 10.1188 2.59998 13.0009 2.59998C15.883 2.59998 18.2256 4.93218 18.2256 7.79998C18.2256 10.6678 15.883 13 13.0009 13ZM17.9097 13.8748C18.9838 13.0196 19.8121 11.8949 20.3104 10.6155C20.8087 9.33603 20.959 7.94737 20.7463 6.59091C20.2302 3.18101 17.3806 0.45237 13.9395 0.0545699C9.19186 -0.49533 5.16446 3.18368 5.16446 7.79998C5.16446 10.257 6.30846 12.4461 8.09206 13.8748C3.70846 15.5141 0.507857 19.3635 0.00605746 24.5583C-0.0114874 24.7405 0.00918268 24.9244 0.0667371 25.0981C0.124291 25.2719 0.217469 25.4317 0.340311 25.5674C0.463153 25.7031 0.612956 25.8115 0.780144 25.886C0.947333 25.9605 1.12823 25.9994 1.31126 26C1.6321 26.0026 1.94232 25.8853 2.18112 25.671C2.41993 25.4567 2.57009 25.1609 2.60216 24.8417C3.12606 19.0398 7.58896 15.6 13.0009 15.6C18.4128 15.6 22.8757 19.0398 23.3995 24.8417C23.4316 25.1609 23.5818 25.4567 23.8206 25.671C24.0594 25.8853 24.3696 26.0026 24.6905 26C25.4653 26 26.0685 25.3266 25.9944 24.5583C25.4939 19.3635 22.2933 15.5141 17.9084 13.8748" fill="currentColor"/>
</g>
<defs>
<clipPath id="clip0_144_84">
<rect width="26" height="26" fill="white"/>
</clipPath>
</defs>
</svg>
